HIERARCHY
ROOT mug3
{
	OFFSET 0.000000 0.000000 0.000000
	CHANNELS 6 Xposition Yposition Zposition Yrotation Xrotation Zrotation
	End Site
	{
		OFFSET 0.000000 0.000000 0.000000
	}
}
MOTION
Frames: 103
Frame Time: 0.008333334
2.285157 3.569129 3.333946 -78.172730 -0.176392 3.333386 
2.285040 3.569117 3.333722 -78.216710 -0.244537 3.362519 
2.285042 3.569391 3.333797 -78.176940 -0.177246 3.299979 
2.285223 3.569434 3.333383 -78.142550 -0.170075 3.294343 
2.285451 3.569278 3.333668 -78.184270 -0.229218 3.306067 
2.284908 3.569005 3.334373 -78.227050 -0.231323 3.251585 
2.284437 3.568860 3.334020 -78.204960 -0.233978 3.231669 
2.284857 3.569122 3.333740 -78.186610 -0.166199 3.215364 
2.284917 3.568969 3.333988 -78.247530 -0.217560 3.219498 
2.284459 3.569065 3.333400 -78.170100 -0.290009 3.206804 
2.284504 3.569113 3.333445 -78.155700 -0.184326 3.231088 
2.284545 3.568851 3.333747 -78.214110 -0.227722 3.230904 
2.284290 3.569302 3.333352 -78.184810 -0.202393 3.186244 
2.284279 3.569280 3.333098 -78.131320 -0.233307 3.213872 
2.284387 3.569144 3.333543 -78.207860 -0.291260 3.252564 
2.284164 3.569307 3.333288 -78.170230 -0.223450 3.206060 
2.284764 3.569123 3.333709 -78.243800 -0.314331 3.240456 
2.284903 3.569241 3.333655 -78.215090 -0.258881 3.246773 
2.285547 3.568991 3.332527 -78.083250 -0.337738 3.264805 
2.286267 3.568964 3.331691 -78.031130 -0.344910 3.340403 
2.286951 3.568801 3.331616 -77.957950 -0.393280 3.350302 
2.286163 3.568020 3.332700 -78.011870 -0.600891 3.404888 
2.286077 3.567720 3.333210 -77.999730 -0.646942 3.385738 
2.285985 3.567855 3.333170 -77.914860 -0.653168 3.398801 
2.286402 3.567793 3.333966 -77.795350 -0.662201 3.452888 
2.287862 3.567760 3.335483 -77.564270 -0.625244 3.392223 
2.290553 3.567883 3.337186 -77.065190 -0.627045 3.482657 
2.292762 3.567891 3.339288 -76.471800 -0.540863 3.289364 
2.295141 3.567669 3.342398 -75.710600 -0.476746 3.196414 
2.301081 3.566502 3.350078 -75.364750 -1.084412 3.390730 
2.301790 3.568219 3.349541 -73.359440 -0.604187 3.034969 
2.306320 3.568198 3.354661 -71.845000 -0.479706 2.994603 
2.310700 3.568504 3.359817 -70.202030 -0.583832 2.992066 
2.315656 3.568726 3.364560 -68.435550 -0.567963 2.765538 
2.320914 3.568204 3.369128 -66.235780 -0.696960 2.837348 
2.324569 3.568401 3.372982 -64.279690 -0.888092 2.828912 
2.328612 3.567861 3.376930 -62.330570 -0.899017 2.671321 
2.333618 3.568071 3.380582 -60.232850 -0.867340 2.605390 
2.337928 3.567541 3.385199 -58.297550 -0.814941 2.378987 
2.344292 3.568152 3.389422 -55.987150 -0.881043 2.343055 
2.352416 3.567342 3.395711 -53.756260 -1.075073 2.287487 
2.361396 3.567880 3.401984 -51.031520 -1.088928 2.413651 
2.371194 3.567643 3.406596 -48.158870 -1.030518 2.126168 
2.380269 3.568651 3.409823 -45.154570 -1.305115 2.048418 
2.390902 3.568147 3.411910 -41.820800 -1.259399 1.602915 
2.405364 3.565737 3.414631 -38.477170 -0.942169 1.600066 
2.414443 3.565164 3.414357 -35.559910 -1.025208 1.350666 
2.423893 3.565864 3.414161 -32.842900 -1.002686 1.420144 
2.431600 3.564904 3.411420 -30.403900 -0.799957 1.064897 
2.437381 3.564448 3.409944 -28.577030 -0.845184 1.054315 
2.442353 3.563775 3.408174 -27.027560 -0.781189 1.051002 
2.444759 3.563567 3.407025 -25.927700 -0.679413 0.979461 
2.445252 3.563816 3.405768 -25.042910 -0.658936 0.844606 
2.445886 3.564349 3.405097 -24.203740 -0.697144 0.715414 
2.446248 3.563719 3.405038 -23.488590 -0.588593 0.661733 
2.446806 3.563552 3.405288 -22.762330 -0.572083 0.577848 
2.446848 3.563239 3.405071 -22.065550 -0.523712 0.668962 
2.446651 3.564177 3.404513 -21.477050 -0.569122 0.525703 
2.446222 3.564584 3.403837 -20.895080 -0.594849 0.506108 
2.446151 3.564247 3.403192 -20.376160 -0.522675 0.513085 
2.445171 3.564807 3.402297 -19.898160 -0.599243 0.475873 
2.444126 3.565044 3.401270 -19.427370 -0.601593 0.516689 
2.443351 3.564713 3.400353 -19.149840 -0.610169 0.470210 
2.441859 3.565132 3.399107 -18.900020 -0.714905 0.471778 
2.441193 3.564721 3.398223 -18.693790 -0.659515 0.408056 
2.440650 3.565019 3.397934 -18.588470 -0.658356 0.397892 
2.441062 3.564775 3.398046 -18.580930 -0.700409 0.400103 
2.441356 3.564821 3.398193 -18.587800 -0.700012 0.311801 
2.441210 3.565153 3.398580 -18.599330 -0.628571 0.320573 
2.440158 3.565566 3.398782 -18.642910 -0.578613 0.279225 
2.441479 3.565456 3.398898 -18.597170 -0.450653 0.274253 
2.441206 3.565928 3.399279 -18.625030 -0.457916 0.245500 
2.441493 3.565295 3.399457 -18.583280 -0.415405 0.310230 
2.440885 3.565757 3.399837 -18.622190 -0.484558 0.270865 
2.440610 3.565757 3.400181 -18.578830 -0.440186 0.266395 
2.440965 3.565849 3.399897 -18.613710 -0.477387 0.252746 
2.441197 3.565326 3.400076 -18.653410 -0.408691 0.170082 
2.441173 3.565583 3.401321 -18.615390 -0.504303 0.333371 
2.441304 3.565518 3.401131 -18.610170 -0.505890 0.308583 
2.441314 3.565325 3.401107 -18.657650 -0.528503 0.295344 
2.441105 3.565424 3.400678 -18.619140 -0.428406 0.277861 
2.441075 3.565562 3.400828 -18.650330 -0.469849 0.280124 
2.441273 3.565557 3.400620 -18.671510 -0.536438 0.288077 
2.440768 3.565710 3.400024 -18.592930 -0.452759 0.289751 
2.440821 3.565767 3.399965 -18.588230 -0.461426 0.277268 
2.441106 3.565858 3.399550 -18.594450 -0.446686 0.296237 
2.440976 3.565982 3.400311 -18.629820 -0.370453 0.258164 
2.440508 3.565491 3.399543 -18.491700 -0.483948 0.270289 
2.440927 3.565477 3.399822 -18.584690 -0.481812 0.257520 
2.440991 3.565405 3.399755 -18.586490 -0.518555 0.269459 
2.440995 3.565433 3.399947 -18.618530 -0.518646 0.268363 
2.440862 3.565436 3.400067 -18.617520 -0.540558 0.271565 
2.440293 3.565585 3.400301 -18.659000 -0.456635 0.254806 
2.440558 3.565560 3.400755 -18.659910 -0.460419 0.240988 
2.440715 3.565381 3.399787 -18.586300 -0.475189 0.285620 
2.440764 3.565759 3.400322 -18.595000 -0.542908 0.379555 
2.441049 3.565590 3.400204 -18.566530 -0.515411 0.401879 
2.440936 3.565131 3.400152 -18.594640 -0.544525 0.373237 
2.441046 3.565276 3.399963 -18.617220 -0.486145 0.324603 
2.440839 3.565067 3.400077 -18.622560 -0.536560 0.306185 
2.440337 3.564998 3.400161 -18.605900 -0.542267 0.303818 
2.440945 3.566809 3.400654 -18.685970 -0.722717 0.394316 
2.440141 3.564700 3.399753 -18.573700 -0.473908 0.165435 
